<?xml version="1.0" encoding="UTF-8"?>
<svg 
  xmlns="http://www.w3.org/2000/svg" 
  xmlns:xlink="http://www.w3.org/1999/xlink" viewBox="0 0 32 32">
  <style>:root&gt;svg{display:none}:root&gt;svg:target{display:block}</style>
  <svg id="icon-Unchecked" viewBox="0 0 32 32">
    <path d="M25.313 4q1.063 0 1.875 0.813t0.813 1.875v18.625q0 1.063-0.813 1.875t-1.875 0.813h-18.625q-1.063 0-1.875-0.813t-0.813-1.875v-18.625q0-1.063 0.813-1.875t1.875-0.813h18.625zM25.313 6.688h-18.625v18.625h18.625v-18.625z"></path>
  </svg>
  <svg id="icon-Checked" viewBox="0 0 32 32">
    <path d="M13.313 22.688l12-12-1.875-1.938-10.125 10.125-4.75-4.75-1.875 1.875zM25.313 4q1.125 0 1.906 0.781t0.781 1.906v18.625q0 1.125-0.781 1.906t-1.906 0.781h-18.625q-1.125 0-1.906-0.781t-0.781-1.906v-18.625q0-1.125 0.781-1.906t1.906-0.781h18.625z"></path>
  </svg>
  <svg id="icon-remove" viewBox="0 0 32 32">
    <path d="M21 28c0.553 0 1-0.447 1-1v-14c0-0.553-0.447-1-1-1s-1 0.447-1 1v14c0 0.553 0.447 1 1 1zM11 28c0.552 0 1-0.447 1-1v-14c0-0.553-0.448-1-1-1s-1 0.447-1 1v14c0 0.553 0.448 1 1 1zM29 6h-4v-2c0-2.209-1.791-4-4-4h-10c-2.209 0-4 1.791-4 4v2h-4l-3 3c0 0.553 0.448 1 1 1h3v20c0 1.104 0.896 2 2 2h20c1.104 0 2-0.896 2-2v-20h3c0.553 0 1-0.447 1-1l-3-3zM10 4c0-1.104 0.896-2 2-2h8c1.104 0 2 0.896 2 2v2h-12v-2zM26 29c0 0.553-0.447 1-1 1h-18c-0.552 0-1-0.447-1-1v-19h20v19zM16 28c0.553 0 1-0.447 1-1v-14c0-0.553-0.447-1-1-1s-1 0.447-1 1v14c0 0.553 0.447 1 1 1z"></path>
  </svg>
  <svg id="icon-camera" viewBox="0 0 32 32">
    <path d="M9.5 19c0 3.59 2.91 6.5 6.5 6.5s6.5-2.91 6.5-6.5-2.91-6.5-6.5-6.5-6.5 2.91-6.5 6.5zM30 8h-7c-0.5-2-1-4-3-4h-8c-2 0-2.5 2-3 4h-7c-1.1 0-2 0.9-2 2v18c0 1.1 0.9 2 2 2h28c1.1 0 2-0.9 2-2v-18c0-1.1-0.9-2-2-2zM16 27.875c-4.902 0-8.875-3.973-8.875-8.875s3.973-8.875 8.875-8.875c4.902 0 8.875 3.973 8.875 8.875s-3.973 8.875-8.875 8.875zM30 14h-4v-2h4v2z"></path>
  </svg>
  <svg id="icon-location" viewBox="0 0 32 32">
    <path d="M16 0c-5.523 0-10 4.477-10 10 0 10 10 22 10 22s10-12 10-22c0-5.523-4.477-10-10-10zM16 16c-3.314 0-6-2.686-6-6s2.686-6 6-6 6 2.686 6 6-2.686 6-6 6z"></path>
  </svg>
  <svg id="icon-map" viewBox="0 0 32 32">
    <path d="M0 6l10-4v24l-10 4z"></path>
    <path d="M12 1l10 6v23l-10-5z"></path>
    <path d="M24 7l8-6v24l-8 6z"></path>
  </svg>
  <svg id="icon-plus" viewBox="0 0 32 32">
    <path d="M31 12h-11v-11c0-0.552-0.448-1-1-1h-6c-0.552 0-1 0.448-1 1v11h-11c-0.552 0-1 0.448-1 1v6c0 0.552 0.448 1 1 1h11v11c0 0.552 0.448 1 1 1h6c0.552 0 1-0.448 1-1v-11h11c0.552 0 1-0.448 1-1v-6c0-0.552-0.448-1-1-1z"></path>
  </svg>
   <svg id="icon-sun" viewBox="0 0 32 32">
    <path d="M16 26c1.105 0 2 0.895 2 2v2c0 1.105-0.895 2-2 2s-2-0.895-2-2v-2c0-1.105 0.895-2 2-2zM16 6c-1.105 0-2-0.895-2-2v-2c0-1.105 0.895-2 2-2s2 0.895 2 2v2c0 1.105-0.895 2-2 2zM30 14c1.105 0 2 0.895 2 2s-0.895 2-2 2h-2c-1.105 0-2-0.895-2-2s0.895-2 2-2h2zM6 16c0 1.105-0.895 2-2 2h-2c-1.105 0-2-0.895-2-2s0.895-2 2-2h2c1.105 0 2 0.895 2 2zM25.899 23.071l1.414 1.414c0.781 0.781 0.781 2.047 0 2.828s-2.047 0.781-2.828 0l-1.414-1.414c-0.781-0.781-0.781-2.047 0-2.828s2.047-0.781 2.828 0zM6.101 8.929l-1.414-1.414c-0.781-0.781-0.781-2.047 0-2.828s2.047-0.781 2.828 0l1.414 1.414c0.781 0.781 0.781 2.047 0 2.828s-2.047 0.781-2.828 0zM25.899 8.929c-0.781 0.781-2.047 0.781-2.828 0s-0.781-2.047 0-2.828l1.414-1.414c0.781-0.781 2.047-0.781 2.828 0s0.781 2.047 0 2.828l-1.414 1.414zM6.101 23.071c0.781-0.781 2.047-0.781 2.828 0s0.781 2.047 0 2.828l-1.414 1.414c-0.781 0.781-2.047 0.781-2.828 0s-0.781-2.047 0-2.828l1.414-1.414z"></path>
    <path d="M16 8c-4.418 0-8 3.582-8 8s3.582 8 8 8c4.418 0 8-3.582 8-8s-3.582-8-8-8zM16 21c-2.761 0-5-2.239-5-5s2.239-5 5-5 5 2.239 5 5-2.239 5-5 5z"></path>
  </svg>
</svg>